<svg class="tw-w-[55px] tw-h-[55px] lg:tw-w-[137px] lg:tw-h-[137px]" viewBox="0 0 137 137" fill="currentColor" xmlns="http://www.w3.org/2000/svg" aria-hidden="true">
    <rect width="137" height="137" fill="#B61918"></rect>
    <g clip-path="url(#clip0)">
        <path d="M81.4851 105.706H55.2947C55.1188 105.706 54.9446 105.741 54.7821 105.809C54.6196 105.877 54.472 105.976 54.3476 106.101C54.2232 106.227 54.1246 106.376 54.0572 106.539C53.9899 106.703 53.9553 106.879 53.9553 107.056C53.9553 107.233 53.9899 107.409 54.0572 107.573C54.1246 107.736 54.2232 107.885 54.3476 108.011C54.472 108.136 54.6196 108.235 54.7821 108.303C54.9446 108.371 55.1188 108.406 55.2947 108.406H81.4851C81.8403 108.406 82.181 108.264 82.4322 108.011C82.6834 107.757 82.8245 107.414 82.8245 107.056C82.8245 106.698 82.6834 106.355 82.4322 106.101C82.181 105.848 81.8403 105.706 81.4851 105.706ZM49.2983 56.913L49.9923 59.3481C62.1398 56.9729 74.627 56.9729 86.7745 59.3481L87.4685 56.913L92.6573 38.7104C92.7558 38.3637 92.7135 37.9917 92.5399 37.6763C92.3663 37.3609 92.0754 37.128 91.7314 37.0287C91.3874 36.9295 91.0183 36.972 90.7054 37.147C90.3925 37.322 90.1614 37.6152 90.0629 37.9619L87.1734 48.1108C84.7346 47.675 82.2753 47.3242 79.7955 47.0583L81.9294 31.7778C81.9619 31.4287 81.8597 31.0804 81.6441 30.8053C81.4284 30.5302 81.1158 30.3495 80.7713 30.3007C80.4268 30.2518 80.0769 30.3387 79.7943 30.5432C79.5117 30.7477 79.3182 31.054 79.2539 31.3986L77.1038 46.8034C74.6586 46.6029 72.2058 46.4852 69.7455 46.4504V27.7575C69.7455 27.3965 69.6034 27.0504 69.3505 26.7948C69.0976 26.5393 68.7545 26.3953 68.3964 26.3945C68.0377 26.3945 67.6937 26.5381 67.4401 26.7937C67.1865 27.0493 67.044 27.396 67.044 27.7575V46.4536C64.5859 46.4907 62.132 46.6083 59.6824 46.8066L57.5356 31.4019C57.4713 31.0573 57.2778 30.7509 56.9952 30.5465C56.7126 30.342 56.3627 30.2551 56.0182 30.3039C55.6737 30.3527 55.3611 30.5335 55.1455 30.8086C54.9298 31.0837 54.8276 31.432 54.8601 31.7811L56.994 47.0616C54.5163 47.3296 52.0571 47.6804 49.6162 48.1141L46.7267 37.9815C46.6282 37.6348 46.397 37.3417 46.0841 37.1666C45.7712 36.9916 45.4022 36.9491 45.0581 37.0483C44.7141 37.1476 44.4233 37.3805 44.2496 37.6959C44.076 38.0113 44.0338 38.3833 44.1322 38.73L49.2983 56.913ZM79.4128 49.7516C81.7651 50.0022 84.1001 50.3291 86.4177 50.7322L85.5129 53.9092C83.3509 53.5366 81.1651 53.237 78.9556 53.0104L79.4128 49.7516ZM69.7357 49.1698C72.0664 49.2025 74.3948 49.3114 76.7212 49.4967L76.2639 52.7652C74.1019 52.5953 71.9258 52.495 69.7357 52.4645V49.1698ZM67.0311 49.1698V52.4678C64.8518 52.5005 62.6757 52.6007 60.5029 52.7685L60.0456 49.4999C62.3676 49.3125 64.6961 49.2014 67.0311 49.1665V49.1698ZM57.354 49.7516L57.8112 53.0202C55.6125 53.249 53.4267 53.5486 51.2539 53.919L50.3523 50.7354C52.6678 50.328 55.0017 49.9989 57.354 49.7483V49.7516ZM74.2565 77.7763C74.2565 73.2689 71.247 70.7881 65.7825 70.7881H58.0934V93.1679H63.227V85.3234H65.1177L69.94 93.1679H75.7418L69.9498 84.1663L70.1898 84.0617C72.8879 82.8556 74.2565 80.7441 74.2565 77.773V77.7763ZM65.1566 81.6985H63.1946V74.6025H65.2215C67.7802 74.6025 69.1877 75.8445 69.1877 78.1031C69.1877 80.3617 67.7186 81.7018 65.1566 81.7018V81.6985ZM50.2031 81.522L49.6454 81.3423L50.1804 81.1036C51.6009 80.4499 53.297 79.1425 53.297 76.4786C53.297 72.7525 50.7026 70.7815 45.8381 70.7815H38.3532V93.1614H45.6824C51.1469 93.1614 54.1564 90.9028 54.1564 86.8007C54.1499 84.0715 52.8948 82.4078 50.2031 81.5253V81.522ZM43.2177 74.4031H45.4457C48.1795 74.4031 48.7535 75.8772 48.7535 77.1095C48.7535 78.9301 47.4563 80.0152 45.3127 80.0152H43.2177V74.4031ZM45.5105 89.5431H43.2177V83.2053H45.4457C47.9363 83.2053 49.3113 84.3526 49.3113 86.4412C49.3113 88.4416 47.959 89.5431 45.5105 89.5431ZM86.1745 79.538C83.3207 78.4332 82.5813 77.8122 82.5813 76.5146C82.5813 75.217 83.6093 74.5044 85.3313 74.5044C87.0534 74.5044 89.1127 75.1287 91.0779 76.2302L91.8627 71.9484C90.0629 71.0888 88.2306 70.5233 85.2827 70.5233C80.7101 70.5233 77.7589 73.0826 77.7589 77.0604C77.7589 80.7768 79.7047 82.1627 84.1152 83.8656C87.316 85.0946 88.0976 85.7483 88.0976 87.1832C88.0976 88.6181 86.969 89.4712 85.1497 89.4712C83.0872 89.4712 80.6095 88.7619 78.1286 87.4708L77.3892 91.8245C79.7975 92.9178 82.4112 93.4752 85.0524 93.4588C89.9915 93.4588 92.9394 90.8701 92.9394 86.536C92.9232 83.1203 91.2822 81.4272 86.1745 79.538ZM118.844 70.7848H112.589L108.305 84.4245L104.021 70.7848H97.7682L95.9521 93.1646H100.768L101.965 77.505L106.359 93.1941H110.221L114.651 77.5638L115.841 93.1614H120.661L118.844 70.7848ZM27.0384 70.6867H21.1361L13.1973 93.1646H18.4639L19.9492 88.8273H28.2253L29.7106 93.1646H29.9798H34.9708L27.0384 70.6867ZM21.1653 84.8331L24.084 75.7661L27.0027 84.8331H21.1653Z" fill="white"></path>
    </g>
    <defs>
        <clipPath id="clip0">
            <rect width="107.463" height="82.0115" fill="white" transform="translate(13.1973 26.3945)"></rect>
        </clipPath>
    </defs>
</svg>