<?xml version="1.0" encoding="UTF-8"?>
<svg id="a" xmlns="http://www.w3.org/2000/svg" xmlns:xlink="http://www.w3.org/1999/xlink" viewBox="0 0 1000 205.14"><defs><style>.c{fill:url(#b);}.d{fill:gray;}</style><linearGradient id="b" x1="577.21" y1="-8.05" x2="985.66" y2="169.08" gradientTransform="matrix(1, 0, 0, 1, 0, 0)" gradientUnits="userSpaceOnUse"><stop offset=".05" stop-color="#ec008c"/><stop offset=".99" stop-color="#f7941d"/></linearGradient></defs><polygon points="577.26 90.22 589.54 78.08 589.54 41.24 552.68 4.4 429.86 4.4 393.03 41.24 393.03 16.68 380.74 4.4 331.6 4.4 319.33 16.68 319.33 41.24 294.77 65.81 270.21 41.24 270.21 16.68 257.91 4.4 208.79 4.4 196.5 16.68 184.23 4.4 135.11 4.4 122.82 16.68 122.82 65.81 61.41 4.4 12.29 4.4 0 16.68 0 188.62 12.29 200.91 61.41 200.91 73.69 188.62 73.69 139.49 135.11 200.91 184.23 200.91 196.5 188.62 196.5 90.37 257.91 151.77 257.91 188.62 270.21 200.91 319.33 200.91 331.6 188.62 331.6 151.77 393.03 90.37 393.03 164.05 429.86 200.91 552.68 200.91 589.54 164.05 589.54 127.22 577.26 114.91 515.84 114.91 515.84 127.22 466.71 127.22 466.71 78.08 515.84 78.08 515.84 90.22 577.26 90.22"/><path class="d" d="M574.34,8.66c.4-.92,.95-1.72,1.65-2.39,.7-.68,1.5-1.21,2.44-1.6,.93-.38,1.91-.58,2.95-.58s2.03,.19,2.95,.58c.92,.39,1.73,.92,2.42,1.6,.69,.67,1.24,1.47,1.64,2.39,.41,.92,.61,1.92,.61,2.99s-.2,2.11-.61,3.04c-.4,.93-.95,1.73-1.64,2.42-.69,.69-1.5,1.22-2.42,1.59-.92,.38-1.9,.57-2.95,.57s-2.02-.19-2.95-.57c-.94-.38-1.74-.91-2.44-1.59-.7-.68-1.25-1.49-1.65-2.42-.41-.93-.61-1.94-.61-3.04s.21-2.06,.61-2.99Zm1.25,5.57c.32,.79,.75,1.48,1.31,2.06,.57,.58,1.23,1.04,2,1.37,.76,.33,1.59,.5,2.48,.5s1.7-.16,2.46-.5c.76-.33,1.41-.79,1.98-1.37,.56-.58,1-1.27,1.32-2.06,.32-.79,.48-1.66,.48-2.59s-.16-1.75-.48-2.54c-.32-.78-.76-1.47-1.32-2.04-.56-.58-1.22-1.03-1.98-1.36-.76-.33-1.58-.5-2.46-.5s-1.72,.17-2.48,.5c-.77,.33-1.43,.79-2,1.36-.56,.57-.99,1.26-1.31,2.04-.32,.78-.48,1.63-.48,2.54s.16,1.8,.48,2.59Zm6.27-6.99c1.05,0,1.84,.21,2.34,.63,.51,.42,.76,1.05,.76,1.91,0,.8-.23,1.39-.67,1.76-.45,.37-1,.59-1.66,.66l2.53,3.92h-1.48l-2.42-3.82h-1.46v3.82h-1.38V7.24h3.44Zm-.61,3.94c.31,0,.6-.01,.88-.03,.28-.02,.52-.08,.74-.17,.21-.1,.39-.24,.52-.44,.13-.19,.19-.47,.19-.82,0-.3-.06-.53-.18-.71-.12-.18-.26-.31-.44-.41-.19-.1-.4-.16-.63-.19-.24-.03-.47-.05-.7-.05h-1.84v2.82h1.45Z"/><path class="c" d="M946.94,5.96V202.78h53.06V5.96h-53.06Zm-175.02,23.81c-18.54-18.4-44.06-29.77-72.24-29.77-56.65,0-102.57,45.92-102.57,102.57s45.92,102.57,102.57,102.57,102.57-45.92,102.57-102.57c0-16.42-3.88-31.93-10.74-45.69h35.69V202.78h53.06V56.87h55.27V3.82h-163.6V29.77Zm-74.96,124.24l-42.97-24.55v-49.08l42.97,24.55v49.08Zm-40.23-78.34l42.95-24.54,42.95,24.54-42.95,24.54-42.95-24.54Zm88.64,53.78l-42.97,24.55v-49.08l42.97-24.55v49.08Z"/></svg>