<svg id="Layer_1" data-name="Layer 1" xmlns="http://www.w3.org/2000/svg" width="199.3" height="50" viewBox="0 0 199.3 50">
  <defs>
    <style>
      .cls-1, .cls-3 {
        isolation: isolate;
      }

      .cls-2 {
        fill: #7f5ac2;
      }

      .cls-3 {
        font-size: 43.0298px;
        fill: #884a9a;
        font-family: HelveticaNeue-Light, Helvetica Neue;
        font-weight: 300;
        letter-spacing: -0.069em;
      }

      .cls-4 {
        fill: #4f3190;
      }
    </style>
  </defs>
  <title>Artboard 1</title>
  <g>
    <g class="cls-1">
      <path class="cls-2" d="M3.3,6.2l17.9,26h.1V6.2h2.9V36.9H20.9L3,10.9H2.9v26H0V6.2Z"/>
    </g>
    <g class="cls-1">
      <path class="cls-2" d="M25.1,6.2h3.4L38.6,21.8,48.7,6.2h3.5l-12.1,18V36.8H37.2V24.2Z"/>
      <path class="cls-2" d="M72.9,12.3a12.0647,12.0647,0,0,0-2.1-2.4A10.4925,10.4925,0,0,0,68,8.5,11.27,11.27,0,0,0,64.8,8a11.7472,11.7472,0,0,0-5.2,1.1A9.9061,9.9061,0,0,0,56,12.2a15.6328,15.6328,0,0,0-2.1,4.3,16.59,16.59,0,0,0-.7,4.9,16.136,16.136,0,0,0,.7,4.9A13.758,13.758,0,0,0,56,30.7a9.9061,9.9061,0,0,0,3.6,3.1,10.7711,10.7711,0,0,0,5.2,1.1,10.065,10.065,0,0,0,3.9-.8,10.1855,10.1855,0,0,0,3-2.1,11.0131,11.0131,0,0,0,2-3.1,12.5607,12.5607,0,0,0,1-3.8h2.9a15.9165,15.9165,0,0,1-1.3,5.1,13.5766,13.5766,0,0,1-2.7,3.9,11.9469,11.9469,0,0,1-3.8,2.5,12.9512,12.9512,0,0,1-4.9.9,13.9145,13.9145,0,0,1-6.3-1.3,13.022,13.022,0,0,1-4.5-3.5,15.6051,15.6051,0,0,1-2.7-5.1,20.4632,20.4632,0,0,1-.9-6.1,20.9525,20.9525,0,0,1,.9-6.1,15.6051,15.6051,0,0,1,2.7-5.1,13.022,13.022,0,0,1,4.5-3.5,13.9145,13.9145,0,0,1,6.3-1.3,15.4019,15.4019,0,0,1,4.3.6A13.5375,13.5375,0,0,1,73,8a11.7744,11.7744,0,0,1,2.8,3.1,10.9715,10.9715,0,0,1,1.4,4.2H74.3A16.386,16.386,0,0,0,72.9,12.3Z"/>
    </g>
    <text class="cls-3" transform="translate(75.6424 36.8765)"> </text>
    <g class="cls-1">
      <path class="cls-4" d="M93.4,6.2V18h12.4V6.2h6.8V36.9h-6.8V23.6H93.4V36.9H86.6V6.2Z"/>
      <path class="cls-4" d="M116.7,15.3a14.3518,14.3518,0,0,1,3-5.1,12.7339,12.7339,0,0,1,4.8-3.4,16.1092,16.1092,0,0,1,6.3-1.3,14.65,14.65,0,0,1,6.4,1.3,13.5413,13.5413,0,0,1,4.7,3.4,16.3436,16.3436,0,0,1,3,5.1,19.0836,19.0836,0,0,1,1,6.4,18.9012,18.9012,0,0,1-1,6.3,16.3436,16.3436,0,0,1-3,5.1,14.5406,14.5406,0,0,1-4.7,3.4,16.2291,16.2291,0,0,1-6.4,1.2,15.3938,15.3938,0,0,1-6.3-1.2,13.9412,13.9412,0,0,1-4.8-3.4,14.3518,14.3518,0,0,1-3-5.1,18.4989,18.4989,0,0,1-1-6.3A16.557,16.557,0,0,1,116.7,15.3Zm6.2,10.1a12.1542,12.1542,0,0,0,1.4,3.3,7.4892,7.4892,0,0,0,2.6,2.4,8.9,8.9,0,0,0,7.8,0,7.4892,7.4892,0,0,0,2.6-2.4,9.68,9.68,0,0,0,1.4-3.3,15.8272,15.8272,0,0,0,.5-3.8,17.3733,17.3733,0,0,0-.5-3.9,11.5684,11.5684,0,0,0-1.4-3.4,7.4892,7.4892,0,0,0-2.6-2.4,8.9,8.9,0,0,0-7.8,0,7.4892,7.4892,0,0,0-2.6,2.4,9.3943,9.3943,0,0,0-1.4,3.4,17.3733,17.3733,0,0,0-.5,3.9A12.03,12.03,0,0,0,122.9,25.4Z"/>
      <path class="cls-4" d="M162.7,6.2a13.9519,13.9519,0,0,1,4.9.8,11.1982,11.1982,0,0,1,3.3,2.2,6.8316,6.8316,0,0,1,1.8,3.2,15.061,15.061,0,0,1,.6,3.7,10.88,10.88,0,0,1-.6,3.6,10.1429,10.1429,0,0,1-1.8,3.2,9.5525,9.5525,0,0,1-3.3,2.2,11.9921,11.9921,0,0,1-4.9.8h-7.1v11h-6.8V6.1l13.9.1Zm-1.8,14.4a14.9789,14.9789,0,0,0,2.2-.2,4.3831,4.3831,0,0,0,1.9-.7,3.5315,3.5315,0,0,0,1.3-1.4,5.3555,5.3555,0,0,0,.5-2.4,5.3555,5.3555,0,0,0-.5-2.4,3.5315,3.5315,0,0,0-1.3-1.4,5.36,5.36,0,0,0-1.9-.7,16.3523,16.3523,0,0,0-2.2-.2h-5.2v9.2l5.2.2Z"/>
      <path class="cls-4" d="M199,6.2v5.7H182.8v6.6h14.9v5.2H182.8v7.5h16.6v5.7H176V6.2Z"/>
    </g>
  </g>
</svg>
