<?xml version="1.0" encoding="utf-8"?>
<!DOCTYPE svg PUBLIC "-//W3C//DTD SVG 1.1//EN" "http://www.w3.org/Graphics/SVG/1.1/DTD/svg11.dtd">
<svg version="1.1" xmlns="http://www.w3.org/2000/svg" xmlns:xlink="http://www.w3.org/1999/xlink" width="512" height="512" viewBox="0 0 512 512">
<g>
</g>
	<path fill="white" d="M267.49 198.492v157.215c0 13.589 0.778 23.572 2.345 29.952 3.134 12.943 10.281 17.193 18.381 23.88 15.155 12.544 63.222 24.146 96.533-3.451l4.628 52.91c-13.824 16.435-90.819 28.743-127.068 22.498-24.392-4.26-46.090-7.045-63.898-21.094-16.947-13.373-26.89-34.11-29.798-62.238-0.891-7.67-1.321-23.49-1.321-47.431v-152.238l-44.667 0.645v-44.841c31.355-3.277 87.368-42.567 98.427-125.43h46.438l1.178 117.401 101.161 0.645-1.147 52.234-101.192-0.655z"/>
</svg>
